<?xml version="1.0" encoding="UTF-8"?>
<!DOCTYPE svg PUBLIC "-//W3C//DTD SVG 1.1//EN" "http://www.w3.org/Graphics/SVG/1.1/DTD/svg11.dtd">
<!-- Creator: CorelDRAW -->
<svg xmlns="http://www.w3.org/2000/svg" xml:space="preserve" width="0.468866in" height="0.468866in" version="1.1" shape-rendering="geometricPrecision" text-rendering="geometricPrecision" image-rendering="optimizeQuality" fill-rule="evenodd" clip-rule="evenodd"
viewBox="0 0 404 404"
 xmlns:xlink="http://www.w3.org/1999/xlink"
 xmlns:xodm="http://www.corel.com/coreldraw/odm/2003">
 <defs>
    <clipPath id="id0">
     <path d="M0 0l404 0 0 404 -404 0 0 -404z"/>
    </clipPath>
 </defs>
 <g id="Capa_x0020_1">
  <metadata id="CorelCorpID_0Corel-Layer"/>
  <g>
   <g clip-path="url(#id0)">
    <polygon fill="#0152B8" points="194,605 129,537 540,141 605,209 "/>
    <polygon id="_1" fill="#0152B8" points="129,538 128,536 539,140 540,142 "/>
    <polygon id="_2" fill="#0152B8" points="128,537 127,535 537,139 539,141 "/>
    <polygon id="_3" fill="#0152B8" points="127,535 125,534 536,138 538,139 "/>
    <polygon id="_4" fill="#0153B8" points="126,534 124,533 535,137 537,138 "/>
    <polygon id="_5" fill="#0153B8" points="125,533 123,531 534,136 536,137 "/>
    <polygon id="_6" fill="#0153B8" points="124,532 122,530 533,134 535,136 "/>
    <polygon id="_7" fill="#0153B8" points="123,531 121,529 532,133 534,135 "/>
    <polygon id="_8" fill="#0153B8" points="122,530 120,528 531,132 533,134 "/>
    <polygon id="_9" fill="#0153B8" points="121,529 119,527 530,131 531,133 "/>
    <polygon id="_10" fill="#0153B8" points="119,528 118,526 529,130 530,132 "/>
    <polygon id="_11" fill="#0154B8" points="118,526 117,525 528,129 529,130 "/>
    <polygon id="_12" fill="#0154B9" points="117,525 116,524 527,128 528,129 "/>
    <polygon id="_13" fill="#0154B9" points="116,524 115,522 525,126 527,128 "/>
    <polygon id="_14" fill="#0154B9" points="115,523 113,521 524,125 526,127 "/>
    <polygon id="_15" fill="#0154B9" points="114,522 112,520 523,124 525,126 "/>
    <polygon id="_16" fill="#0154B9" points="113,521 111,519 522,123 524,125 "/>
    <polygon id="_17" fill="#0154B9" points="112,520 110,518 521,122 523,124 "/>
    <polygon id="_18" fill="#0155B9" points="111,518 109,517 520,121 522,122 "/>
    <polygon id="_19" fill="#0155B9" points="110,517 108,516 519,120 520,121 "/>
    <polygon id="_20" fill="#0155B9" points="108,516 107,514 518,118 519,120 "/>
    <polygon id="_21" fill="#0155B9" points="107,515 106,513 517,117 518,119 "/>
    <polygon id="_22" fill="#0155B9" points="106,514 105,512 516,116 517,118 "/>
    <polygon id="_23" fill="#0155B9" points="105,513 104,511 514,115 516,117 "/>
    <polygon id="_24" fill="#0155B9" points="104,512 102,510 513,114 515,116 "/>
    <polygon id="_25" fill="#0156B9" points="103,510 101,509 512,113 514,115 "/>
    <polygon id="_26" fill="#0156B9" points="102,509 100,508 511,112 513,113 "/>
    <polygon id="_27" fill="#0256B9" points="101,508 99,507 510,111 512,112 "/>
    <polygon id="_28" fill="#0256B9" points="100,507 98,505 509,109 511,111 "/>
    <polygon id="_29" fill="#0256B9" points="99,506 97,504 508,108 510,110 "/>
    <polygon id="_30" fill="#0256B9" points="98,505 96,503 507,107 508,109 "/>
    <polygon id="_31" fill="#0256B9" points="96,504 95,502 506,106 507,108 "/>
    <polygon id="_32" fill="#0257B9" points="95,503 94,501 505,105 506,107 "/>
    <polygon id="_33" fill="#0257B9" points="94,501 93,500 504,104 505,105 "/>
    <polygon id="_34" fill="#0257BA" points="93,500 92,499 502,103 504,104 "/>
    <polygon id="_35" fill="#0257BA" points="92,499 90,497 501,101 503,103 "/>
    <polygon id="_36" fill="#0257BA" points="91,498 89,496 500,100 502,102 "/>
    <polygon id="_37" fill="#0257BA" points="90,497 88,495 499,99 501,101 "/>
    <polygon id="_38" fill="#0257BA" points="89,496 87,494 498,98 500,100 "/>
    <polygon id="_39" fill="#0258BA" points="88,495 86,493 497,97 499,99 "/>
    <polygon id="_40" fill="#0258BA" points="87,493 85,492 496,96 498,97 "/>
    <polygon id="_41" fill="#0258BA" points="86,492 84,491 495,95 496,96 "/>
    <polygon id="_42" fill="#0258BA" points="84,491 83,489 494,94 495,95 "/>
    <polygon id="_43" fill="#0258BA" points="83,490 82,488 493,92 494,94 "/>
    <polygon id="_44" fill="#0258BA" points="82,489 81,487 491,91 493,93 "/>
    <polygon id="_45" fill="#0258BA" points="81,488 80,486 490,90 492,92 "/>
    <polygon id="_46" fill="#0259BA" points="80,487 78,485 489,89 491,91 "/>
    <polygon id="_47" fill="#0259BA" points="79,486 77,484 488,88 490,90 "/>
    <polygon id="_48" fill="#0259BA" points="78,484 76,483 487,87 489,88 "/>
    <polygon id="_49" fill="#0259BA" points="77,483 75,482 486,86 488,87 "/>
    <polygon id="_50" fill="#0259BA" points="76,482 74,480 485,84 487,86 "/>
    <polygon id="_51" fill="#0259BA" points="75,481 73,479 484,83 485,85 "/>
    <polygon id="_52" fill="#0259BA" points="73,480 72,478 483,82 484,84 "/>
    <polygon id="_53" fill="#025ABA" points="72,479 71,477 482,81 483,83 "/>
    <polygon id="_54" fill="#025ABA" points="71,478 70,476 481,80 482,82 "/>
    <polygon id="_55" fill="#025ABA" points="70,476 69,475 479,79 481,80 "/>
    <polygon id="_56" fill="#025ABB" points="69,475 67,474 478,78 480,79 "/>
    <polygon id="_57" fill="#025ABB" points="68,474 66,472 477,76 479,78 "/>
    <polygon id="_58" fill="#025ABB" points="67,473 65,471 476,75 478,77 "/>
    <polygon id="_59" fill="#025ABB" points="66,472 64,470 475,74 477,76 "/>
    <polygon id="_60" fill="#025BBB" points="65,471 63,469 474,73 476,75 "/>
    <polygon id="_61" fill="#025BBB" points="64,470 62,468 473,72 475,74 "/>
    <polygon id="_62" fill="#025BBB" points="63,468 61,467 472,71 473,73 "/>
    <polygon id="_63" fill="#025BBB" points="61,467 60,466 471,70 472,71 "/>
    <polygon id="_64" fill="#025BBB" points="60,466 59,465 470,69 471,70 "/>
    <polygon id="_65" fill="#025BBB" points="59,465 58,463 469,67 470,69 "/>
    <polygon id="_66" fill="#025BBB" points="58,464 57,462 467,66 469,68 "/>
    <polygon id="_67" fill="#025CBB" points="57,463 55,461 466,65 468,67 "/>
    <polygon id="_68" fill="#025CBB" points="56,462 54,460 465,64 467,66 "/>
    <polygon id="_69" fill="#025CBB" points="55,461 53,459 464,63 466,65 "/>
    <polygon id="_70" fill="#025CBB" points="54,459 52,458 463,62 465,63 "/>
    <polygon id="_71" fill="#025CBB" points="53,458 51,457 462,61 464,62 "/>
    <polygon id="_72" fill="#025CBB" points="52,457 50,455 461,59 463,61 "/>
    <polygon id="_73" fill="#025CBB" points="51,456 49,454 460,58 461,60 "/>
    <polygon id="_74" fill="#025CBB" points="49,455 48,453 459,57 460,59 "/>
    <polygon id="_75" fill="#025DBB" points="48,454 47,452 458,56 459,58 "/>
    <polygon id="_76" fill="#025DBB" points="47,453 46,451 456,55 458,57 "/>
    <polygon id="_77" fill="#025DBB" points="46,451 45,450 455,54 457,55 "/>
    <polygon id="_78" fill="#025DBB" points="45,450 43,449 454,53 456,54 "/>
    <polygon id="_79" fill="#025DBC" points="44,449 42,447 453,52 455,53 "/>
    <polygon id="_80" fill="#025DBC" points="43,448 41,446 452,50 454,52 "/>
    <polygon id="_81" fill="#035DBC" points="42,447 40,445 451,49 453,51 "/>
    <polygon id="_82" fill="#035EBC" points="41,446 39,444 450,48 452,50 "/>
    <polygon id="_83" fill="#035EBC" points="40,445 38,443 449,47 450,49 "/>
    <polygon id="_84" fill="#035EBC" points="38,444 37,442 448,46 449,48 "/>
    <polygon id="_85" fill="#035EBC" points="37,442 36,441 447,45 448,46 "/>
    <polygon id="_86" fill="#035EBC" points="36,441 35,440 446,44 447,45 "/>
    <polygon id="_87" fill="#035EBC" points="35,440 34,438 444,42 446,44 "/>
    <polygon id="_88" fill="#035EBC" points="34,439 32,437 443,41 445,43 "/>
    <polygon id="_89" fill="#035FBC" points="33,438 31,436 442,40 444,42 "/>
    <polygon id="_90" fill="#035FBC" points="32,437 30,435 441,39 443,41 "/>
    <polygon id="_91" fill="#035FBC" points="31,436 29,434 440,38 442,40 "/>
    <polygon id="_92" fill="#035FBC" points="30,434 28,433 439,37 441,38 "/>
    <polygon id="_93" fill="#035FBC" points="29,433 27,432 438,36 440,37 "/>
    <polygon id="_94" fill="#035FBC" points="28,432 26,430 437,34 438,36 "/>
    <polygon id="_95" fill="#035FBC" points="26,431 25,429 436,33 437,35 "/>
    <polygon id="_96" fill="#0360BC" points="25,430 24,428 435,32 436,34 "/>
    <polygon id="_97" fill="#0360BC" points="24,429 23,427 434,31 435,33 "/>
    <polygon id="_98" fill="#0360BC" points="23,428 22,426 432,30 434,32 "/>
    <polygon id="_99" fill="#0360BC" points="22,426 20,425 431,29 433,31 "/>
    <polygon id="_100" fill="#0360BC" points="21,425 19,424 430,28 432,29 "/>
    <polygon id="_101" fill="#0360BD" points="20,424 18,423 429,27 431,28 "/>
    <polygon id="_102" fill="#0360BD" points="19,423 17,421 428,25 430,27 "/>
    <polygon id="_103" fill="#0361BD" points="18,422 16,420 427,24 429,26 "/>
    <polygon id="_104" fill="#0361BD" points="17,421 15,419 426,23 428,25 "/>
    <polygon id="_105" fill="#0361BD" points="16,420 14,418 425,22 426,24 "/>
    <polygon id="_106" fill="#0361BD" points="14,419 13,417 424,21 425,23 "/>
    <polygon id="_107" fill="#0361BD" points="13,417 12,416 423,20 424,21 "/>
    <polygon id="_108" fill="#0361BD" points="12,416 11,415 421,19 423,20 "/>
    <polygon id="_109" fill="#0361BD" points="11,415 10,413 420,17 422,19 "/>
    <polygon id="_110" fill="#0362BD" points="10,414 8,412 419,16 421,18 "/>
    <polygon id="_111" fill="#0362BD" points="9,413 7,411 418,15 420,17 "/>
    <polygon id="_112" fill="#0362BD" points="8,412 6,410 417,14 419,16 "/>
    <polygon id="_113" fill="#0362BD" points="7,411 5,409 416,13 418,15 "/>
    <polygon id="_114" fill="#0362BD" points="6,409 4,408 415,12 417,13 "/>
    <polygon id="_115" fill="#0362BD" points="5,408 3,407 414,11 415,12 "/>
    <polygon id="_116" fill="#0362BD" points="3,407 2,405 413,10 414,11 "/>
    <polygon id="_117" fill="#0362BD" points="2,406 1,404 412,8 413,10 "/>
    <polygon id="_118" fill="#0363BD" points="1,405 0,403 411,7 412,9 "/>
    <polygon id="_119" fill="#0363BD" points="0,404 -1,402 409,6 411,8 "/>
    <polygon id="_120" fill="#0363BD" points="-1,403 -3,401 408,5 410,7 "/>
    <polygon id="_121" fill="#0363BD" points="-2,402 -4,400 407,4 409,6 "/>
    <polygon id="_122" fill="#0363BD" points="-3,400 -5,399 406,3 408,4 "/>
    <polygon id="_123" fill="#0363BD" points="-4,399 -6,398 405,2 407,3 "/>
    <polygon id="_124" fill="#0363BE" points="-5,398 -7,396 404,0 406,2 "/>
    <polygon id="_125" fill="#0364BE" points="-6,397 -8,395 403,-1 405,1 "/>
    <polygon id="_126" fill="#0364BE" points="-7,396 -9,394 402,-2 403,0 "/>
    <polygon id="_127" fill="#0364BE" points="-9,395 -10,393 401,-3 402,-1 "/>
    <polygon id="_128" fill="#0364BE" points="-10,394 -11,392 400,-4 401,-2 "/>
    <polygon id="_129" fill="#0364BE" points="-11,392 -12,391 399,-5 400,-4 "/>
    <polygon id="_130" fill="#0364BE" points="-12,391 -13,390 397,-6 399,-5 "/>
    <polygon id="_131" fill="#0364BE" points="-13,390 -15,388 396,-8 398,-6 "/>
    <polygon id="_132" fill="#0365BE" points="-14,389 -16,387 395,-9 397,-7 "/>
    <polygon id="_133" fill="#0365BE" points="-15,388 -17,386 394,-10 396,-8 "/>
    <polygon id="_134" fill="#0365BE" points="-16,387 -18,385 393,-11 395,-9 "/>
    <polygon id="_135" fill="#0365BE" points="-17,386 -19,384 392,-12 394,-10 "/>
    <polygon id="_136" fill="#0465BE" points="-18,384 -20,383 391,-13 393,-11 "/>
    <polygon id="_137" fill="#0465BE" points="-19,383 -21,382 390,-14 391,-13 "/>
    <polygon id="_138" fill="#0465BE" points="-21,382 -22,381 389,-15 390,-14 "/>
    <polygon id="_139" fill="#0466BE" points="-22,381 -23,379 388,-17 389,-15 "/>
    <polygon id="_140" fill="#0466BE" points="-23,380 -24,378 386,-18 388,-16 "/>
    <polygon id="_141" fill="#0466BE" points="-24,379 -25,377 385,-19 387,-17 "/>
    <polygon id="_142" fill="#0466BE" points="-25,378 -27,376 384,-20 386,-18 "/>
    <polygon id="_143" fill="#0466BE" points="-26,377 -28,375 383,-21 385,-19 "/>
    <polygon id="_144" fill="#0466BE" points="-27,375 -29,374 382,-22 384,-21 "/>
    <polygon id="_145" fill="#0466BE" points="-28,374 -30,373 381,-23 383,-22 "/>
    <polygon id="_146" fill="#0467BE" points="-29,373 -31,371 380,-25 382,-23 "/>
    <polygon id="_147" fill="#0467BF" points="-30,372 -32,370 379,-26 380,-24 "/>
    <polygon id="_148" fill="#0467BF" points="-32,371 -33,369 378,-27 379,-25 "/>
    <polygon id="_149" fill="#0467BF" points="-33,370 -34,368 377,-28 378,-26 "/>
    <polygon id="_150" fill="#0467BF" points="-34,369 -35,367 376,-29 377,-27 "/>
    <polygon id="_151" fill="#0467BF" points="-35,367 -36,366 374,-30 376,-29 "/>
    <polygon id="_152" fill="#0467BF" points="-36,366 -38,365 373,-31 375,-30 "/>
    <polygon id="_153" fill="#0468BF" points="-37,365 -39,363 372,-32 374,-31 "/>
    <polygon id="_154" fill="#0468BF" points="-38,364 -40,362 371,-34 373,-32 "/>
    <polygon id="_155" fill="#0468BF" points="-39,363 -41,361 370,-35 372,-33 "/>
    <polygon id="_156" fill="#0468BF" points="-40,362 -42,360 369,-36 371,-34 "/>
    <polygon id="_157" fill="#0468BF" points="-41,361 -43,359 368,-37 370,-35 "/>
    <polygon id="_158" fill="#0468BF" points="-42,360 -44,358 367,-38 368,-36 "/>
    <polygon id="_159" fill="#0468BF" points="-44,358 -45,357 366,-39 367,-38 "/>
    <polygon id="_160" fill="#0469BF" points="-45,357 -46,356 365,-40 366,-39 "/>
    <polygon id="_161" fill="#0469BF" points="-46,356 -47,354 364,-42 365,-40 "/>
    <polygon id="_162" fill="#0469BF" points="-47,355 -48,353 362,-43 364,-41 "/>
    <polygon id="_163" fill="#0469BF" points="-48,354 -50,352 361,-44 363,-42 "/>
    <polygon id="_164" fill="#0469BF" points="-49,353 -51,351 360,-45 362,-43 "/>
    <polygon id="_165" fill="#0469BF" points="-50,352 -52,350 359,-46 361,-44 "/>
    <polygon id="_166" fill="#0469BF" points="-51,350 -53,349 358,-47 360,-46 "/>
    <polygon id="_167" fill="#046ABF" points="-52,349 -54,348 357,-48 359,-47 "/>
    <polygon id="_168" fill="#046ABF" points="-53,348 -55,346 356,-50 357,-48 "/>
    <polygon id="_169" fill="#046AC0" points="-54,347 -56,345 355,-51 356,-49 "/>
    <polygon id="_170" fill="#046AC0" points="-56,346 -57,344 354,-52 355,-50 "/>
    <polygon id="_171" fill="#046AC0" points="-57,345 -58,343 353,-53 354,-51 "/>
    <polygon id="_172" fill="#046AC0" points="-58,344 -59,342 351,-54 353,-52 "/>
    <polygon id="_173" fill="#046AC0" points="-59,342 -61,341 350,-55 352,-53 "/>
    <polygon id="_174" fill="#046BC0" points="-60,341 -62,340 349,-56 351,-55 "/>
    <polygon id="_175" fill="#046BC0" points="-61,340 -63,339 348,-57 350,-56 "/>
    <polygon id="_176" fill="#046BC0" points="-62,339 -64,337 347,-59 349,-57 "/>
    <polygon id="_177" fill="#046BC0" points="-63,338 -65,336 346,-60 348,-58 "/>
    <polygon id="_178" fill="#046BC0" points="-64,337 -66,335 345,-61 347,-59 "/>
    <polygon id="_179" fill="#046BC0" points="-65,336 -67,334 344,-62 345,-60 "/>
    <polygon id="_180" fill="#046CC0" points="-67,335 -68,333 343,-63 344,-61 "/>
    <polygon id="_181" fill="#046CC0" points="-68,333 -69,332 342,-64 343,-63 "/>
    <polygon id="_182" fill="#046CC0" points="-69,332 -70,331 341,-65 342,-64 "/>
    <polygon id="_183" fill="#046CC0" points="-70,331 -71,329 339,-67 341,-65 "/>
    <polygon id="_184" fill="#046CC0" points="-71,330 -73,328 338,-68 340,-66 "/>
    <polygon id="_185" fill="#046CC0" points="-72,329 -74,327 337,-69 339,-67 "/>
    <polygon id="_186" fill="#046CC0" points="-73,328 -75,326 336,-70 338,-68 "/>
    <polygon id="_187" fill="#046DC0" points="-74,327 -76,325 335,-71 337,-69 "/>
    <polygon id="_188" fill="#056DC0" points="-75,325 -77,324 334,-72 336,-71 "/>
    <polygon id="_189" fill="#056DC0" points="-76,324 -78,323 333,-73 335,-72 "/>
    <polygon id="_190" fill="#056DC1" points="-77,323 -79,321 332,-74 333,-73 "/>
    <polygon id="_191" fill="#056DC1" points="-79,322 -80,320 331,-76 332,-74 "/>
    <polygon id="_192" fill="#056DC1" points="-80,321 -81,319 330,-77 331,-75 "/>
    <polygon id="_193" fill="#056EC1" points="-81,320 -82,318 329,-78 330,-76 "/>
    <polygon id="_194" fill="#056EC1" points="-82,319 -83,317 327,-79 329,-77 "/>
    <polygon id="_195" fill="#056EC1" points="-83,318 -85,316 326,-80 328,-78 "/>
    <polygon id="_196" fill="#056EC1" points="-84,316 -86,315 325,-81 327,-80 "/>
    <polygon id="_197" fill="#056EC1" points="-85,315 -87,314 324,-82 326,-81 "/>
    <polygon id="_198" fill="#056EC1" points="-86,314 -88,312 323,-84 325,-82 "/>
    <polygon id="_199" fill="#056EC1" points="-87,313 -89,311 322,-85 324,-83 "/>
    <polygon id="_200" fill="#056FC1" points="-88,312 -90,310 321,-86 322,-84 "/>
    <polygon id="_201" fill="#056FC1" points="-89,311 -91,309 320,-87 321,-85 "/>
    <polygon id="_202" fill="#056FC1" points="-91,310 -92,308 319,-88 320,-86 "/>
    <polygon id="_203" fill="#056FC1" points="-92,308 -93,307 318,-89 319,-88 "/>
    <polygon id="_204" fill="#056FC1" points="-93,307 -94,306 316,-90 318,-89 "/>
    <polygon id="_205" fill="#056FC1" points="-94,306 -96,304 315,-92 317,-90 "/>
    <polygon id="_206" fill="#0570C1" points="-95,305 -97,303 314,-93 316,-91 "/>
    <polygon id="_207" fill="#0570C1" points="-96,304 -98,302 313,-94 315,-92 "/>
    <polygon id="_208" fill="#0570C1" points="-97,303 -99,301 312,-95 314,-93 "/>
    <polygon id="_209" fill="#0570C1" points="-98,302 -100,300 311,-96 313,-94 "/>
    <polygon id="_210" fill="#0570C2" points="-99,300 -101,299 310,-97 312,-95 "/>
    <polygon id="_211" fill="#0570C2" points="-100,299 -102,298 309,-98 310,-97 "/>
    <polygon id="_212" fill="#0571C2" points="-102,298 -103,297 308,-99 309,-98 "/>
    <polygon id="_213" fill="#0571C2" points="-103,297 -104,295 307,-101 308,-99 "/>
    <polygon id="_214" fill="#0571C2" points="-104,296 -105,294 306,-102 307,-100 "/>
    <polygon id="_215" fill="#0571C2" points="-105,295 -106,293 304,-103 306,-101 "/>
    <polygon id="_216" fill="#0571C2" points="-106,294 -108,292 303,-104 305,-102 "/>
    <polygon id="_217" fill="#0571C2" points="-107,293 -109,291 302,-105 304,-103 "/>
    <polygon id="_218" fill="#0572C2" points="-108,291 -110,290 301,-106 303,-105 "/>
    <polygon id="_219" fill="#0572C2" points="-109,290 -111,289 300,-107 302,-106 "/>
    <polygon id="_220" fill="#0572C2" points="-110,289 -112,287 299,-109 301,-107 "/>
    <polygon id="_221" fill="#0572C2" points="-111,288 -113,286 298,-110 300,-108 "/>
    <polygon id="_222" fill="#0572C2" points="-112,287 -114,285 297,-111 298,-109 "/>
    <polygon id="_223" fill="#0572C2" points="-114,286 -115,284 296,-112 297,-110 "/>
    <polygon id="_224" fill="#0573C2" points="-115,285 -116,283 295,-113 296,-111 "/>
    <polygon id="_225" fill="#0573C2" points="-116,283 -117,282 294,-114 295,-113 "/>
    <polygon id="_226" fill="#0573C2" points="-117,282 -118,281 292,-115 294,-114 "/>
    <polygon id="_227" fill="#0573C2" points="-118,281 -120,279 291,-116 293,-115 "/>
    <polygon id="_228" fill="#0573C2" points="-119,280 -121,278 290,-118 292,-116 "/>
    <polygon id="_229" fill="#0573C3" points="-120,279 -122,277 289,-119 291,-117 "/>
    <polygon id="_230" fill="#0574C3" points="-121,278 -123,276 288,-120 290,-118 "/>
    <polygon id="_231" fill="#0574C3" points="-122,277 -124,275 287,-121 289,-119 "/>
    <polygon id="_232" fill="#0574C3" points="-123,276 -125,274 286,-122 287,-120 "/>
    <polygon id="_233" fill="#0574C3" points="-124,274 -126,273 285,-123 286,-122 "/>
    <polygon id="_234" fill="#0674C3" points="-126,273 -127,272 284,-124 285,-123 "/>
    <polygon id="_235" fill="#0674C3" points="-127,272 -128,270 283,-126 284,-124 "/>
    <polygon id="_236" fill="#0675C3" points="-128,271 -129,269 281,-127 283,-125 "/>
    <polygon id="_237" fill="#0675C3" points="-129,270 -131,268 280,-128 282,-126 "/>
    <polygon id="_238" fill="#0675C3" points="-130,269 -132,267 279,-129 281,-127 "/>
    <polygon id="_239" fill="#0675C3" points="-131,268 -133,266 278,-130 280,-128 "/>
    <polygon id="_240" fill="#0675C3" points="-132,266 -134,265 277,-131 279,-130 "/>
    <polygon id="_241" fill="#0675C3" points="-133,265 -135,264 276,-132 278,-131 "/>
    <polygon id="_242" fill="#0676C3" points="-134,264 -136,262 275,-134 277,-132 "/>
    <polygon id="_243" fill="#0676C3" points="-135,263 -137,261 274,-135 275,-133 "/>
    <polygon id="_244" fill="#0676C3" points="-137,262 -138,260 273,-136 274,-134 "/>
    <polygon id="_245" fill="#0676C3" points="-138,261 -139,259 272,-137 273,-135 "/>
    <polygon id="_246" fill="#0676C3" points="-139,260 -140,258 271,-138 272,-136 "/>
    <polygon id="_247" fill="#0677C4" points="-140,258 -141,257 269,-139 271,-137 "/>
    <polygon id="_248" fill="#0677C4" points="-141,257 -143,256 268,-140 270,-139 "/>
    <polygon id="_249" fill="#0677C4" points="-142,256 -144,255 267,-141 269,-140 "/>
    <polygon id="_250" fill="#0677C4" points="-143,255 -145,253 266,-143 268,-141 "/>
    <polygon id="_251" fill="#0677C4" points="-144,254 -146,252 265,-144 267,-142 "/>
    <polygon id="_252" fill="#0677C4" points="-145,253 -147,251 264,-145 266,-143 "/>
    <polygon id="_253" fill="#0678C4" points="-146,252 -148,250 263,-146 265,-144 "/>
    <polygon id="_254" fill="#0678C4" points="-147,251 -149,249 262,-147 263,-145 "/>
    <polygon id="_255" fill="#0678C4" points="-149,249 -202,194 209,-202 262,-147 "/>
   </g>
  </g>
  <g id="_2646965254000">
   <path fill="white" d="M99 166l1 163c3,0 5,0 7,0 3,0 5,0 8,0 8,0 15,0 23,0 1,0 3,0 4,0 3,0 5,0 8,0 6,0 12,0 19,0 1,0 3,0 4,0 5,0 10,0 15,0 1,0 3,0 4,0 3,0 5,0 8,0 3,0 5,0 8,0 2,0 4,0 5,0 2,0 2,0 2,2 0,3 0,8 -2,10 -2,1 5,-2 12,-15 11,-19 16,-35 3,-55 -21,-32 -63,-39 -92,-60l-2 -1c-17,-13 -24,-24 -32,-44z"/>
   <path fill="white" d="M141 98c-5,18 -2,40 13,53 17,15 52,30 73,40 24,13 42,33 50,60 6,21 -6,52 -21,67 -2,2 -4,4 -7,6 0,0 -2,2 0,2 5,2 38,-12 50,-41 5,-11 6,-24 5,-36 -1,-10 -6,-22 -12,-29 -3,-3 -5,-6 -9,-9 -6,-5 -10,-7 -14,-9 -8,-4 -11,-3 -11,-3 0,-2 9,-4 16,-12 16,-15 19,-31 16,-52 -7,-40 -38,-51 -74,-51 -18,0 -36,0 -54,0 -6,0 -4,-2 -3,-7 2,-5 4,-11 7,-16 -8,9 -23,25 -26,36z"/>
  </g>
 </g>
</svg>
