<svg xmlns="http://www.w3.org/2000/svg" xml:space="preserve" width="0.538362in" height="0.538362in" version="1.1" style="shape-rendering:geometricPrecision; text-rendering:geometricPrecision; image-rendering:optimizeQuality; fill-rule:evenodd; clip-rule:evenodd"
viewBox="0 0 57.98 57.98"
 xmlns:xlink="http://www.w3.org/1999/xlink"
 xmlns:xodm="http://www.corel.com/coreldraw/odm/2003">
 <defs>
  <style type="text/css">
   <![CDATA[
    .fil1 {fill:#FEFEFE}
    .fil0 {fill:url(#id0)}
   ]]>
  </style>
  <radialGradient id="id0" gradientUnits="userSpaceOnUse" gradientTransform="matrix(1 -0 -0 1 0 0)" cx="28.99" cy="28.99" r="28.99" fx="28.99" fy="28.99">
   <stop offset="0" style="stop-opacity:1; stop-color:#0084DB"/>
   <stop offset="0.470588" style="stop-opacity:1; stop-color:#016BC9"/>
   <stop offset="1" style="stop-opacity:1; stop-color:#0152B8"/>
  </radialGradient>
 </defs>
 <g id="Capa_x0020_1">
  <metadata id="CorelCorpID_0Corel-Layer"/>
  <rect class="fil0" width="57.98" height="57.98"/>
  <g id="_2646868187568">
   <path class="fil1" d="M14.29 23.89l0.08 23.36c0.37,0 0.68,0.01 1.05,0.01 0.37,0 0.74,0 1.11,0 1.09,0 2.18,0 3.26,0 0.18,0 0.37,0 0.55,0 0.36,0 0.72,0 1.08,0 0.89,0 1.79,0 2.68,0 0.18,0 0.37,0 0.55,0 0.71,0 1.42,0 2.13,0 0.18,0 0.37,0 0.55,0 0.37,0 0.74,0 1.11,0 0.37,0 0.74,0 1.11,0 0.25,0 0.51,-0.01 0.76,-0.01 0.27,0 0.23,0.07 0.23,0.33 -0,0.37 0.05,1.18 -0.25,1.44 -0.23,0.15 0.71,-0.34 1.65,-2.1 1.52,-2.76 2.28,-5.07 0.38,-7.94 -3.01,-4.54 -9.04,-5.57 -13.24,-8.66l-0.22 -0.16c-2.41,-1.83 -3.48,-3.49 -4.58,-6.3z"/>
   <path class="fil1" d="M20.19 14.02c-0.68,2.57 -0.25,5.81 1.8,7.65 2.5,2.16 7.43,4.27 10.5,5.8 3.51,1.82 6.1,4.75 7.17,8.59 0.8,3.03 -0.87,7.44 -2.97,9.67 -0.31,0.33 -0.63,0.62 -0.96,0.92 0,0 -0.25,0.23 -0.06,0.3 0.7,0.25 5.49,-1.78 7.21,-5.94 0.66,-1.62 0.93,-3.42 0.78,-5.17 -0.12,-1.38 -0.86,-3.13 -1.73,-4.22 -0.38,-0.48 -0.78,-0.88 -1.23,-1.3 -0.81,-0.74 -1.51,-0.99 -2.01,-1.23 -1.08,-0.51 -1.55,-0.45 -1.55,-0.45 0.05,-0.28 1.23,-0.61 2.33,-1.65 2.23,-2.15 2.78,-4.44 2.34,-7.46 -0.94,-5.81 -5.44,-7.27 -10.69,-7.26 -2.59,0 -5.19,-0.03 -7.77,-0.02 -0.81,0 -0.64,-0.3 -0.36,-0.99 0.32,-0.79 0.64,-1.56 0.95,-2.35 -1.12,1.22 -3.31,3.57 -3.75,5.11z"/>
  </g>
 </g>
</svg>
