<svg width="14" height="14" viewBox="0 0 14 14" fill="none" xmlns="http://www.w3.org/2000/svg">
<path fillRule="evenodd" clipRule="evenodd" d="M9.82761 3.20685C9.82761 3.68358 10.2141 4.07001 10.6907 4.07001C11.1675 4.07001 11.5539 3.68358 11.5539 3.20685C11.5539 2.73015 11.1675 2.34372 10.6907 2.34372C10.2141 2.34372 9.82761 2.73015 9.82761 3.20685ZM9.50522 9.6269C10.1903 8.93594 10.5795 8.01214 10.6011 7.02566C10.6236 5.99516 10.3065 5.09921 9.68399 4.43469C9.02718 3.73348 8.07091 3.34507 6.91858 3.31149C5.95527 3.28335 5.03714 3.64392 4.33416 4.32671C3.61311 5.02702 3.19958 6.00578 3.19958 7.01204C3.19958 9.05267 4.85977 10.7129 6.9004 10.7129C7.88577 10.7129 8.81085 10.3272 9.50522 9.6269ZM4.10217 0.0664062H9.69866C11.8928 0.0664062 13.6778 1.85142 13.6778 4.04553V10.0173C13.6778 12.2114 11.8928 13.9964 9.69866 13.9964H4.10217C1.90806 13.9964 0.123047 12.2114 0.123047 10.0173V4.04553C0.123047 1.85142 1.90806 0.0664062 4.10217 0.0664062ZM6.81501 4.55701C6.83736 4.55701 6.85979 4.55736 6.88223 4.558C7.69511 4.58171 8.34921 4.83387 8.77388 5.28723C9.16887 5.7089 9.36961 6.30064 9.35433 6.99845C9.3241 8.38207 8.2462 9.46587 6.90041 9.46587C5.54737 9.46587 4.44658 8.3651 4.44658 7.01206C4.44658 6.34086 4.7223 5.68815 5.20298 5.22129C5.64558 4.79138 6.21573 4.55701 6.81501 4.55701Z" fill="#626470"/>
</svg>
